<svg width="75" height="71" viewBox="0 0 75 71" fill="none" xmlns="http://www.w3.org/2000/svg">
<rect width="75" height="71" rx="35.5" fill="#F0CDCD"/>
<path d="M37.5 66C54.897 66 69 52.3447 69 35.5C69 18.6553 54.897 5 37.5 5C20.103 5 6 18.6553 6 35.5C6 52.3447 20.103 66 37.5 66Z" fill="#A48484"/>
<path d="M31.9509 40.7789L22.5044 41.0355L20.7609 45.4585L17.1443 45.5568L25.1328 26.4328L28.5875 26.3389L37.6297 45.0002L33.9591 45.0999L31.9509 40.7789ZM30.7156 38.0574L26.9285 29.8953L23.6172 38.2503L30.7156 38.0574ZM52.6415 40.2167L43.195 40.4733L41.4515 44.8963L37.8349 44.9946L45.8234 25.8706L49.2781 25.7767L58.3203 44.438L54.6497 44.5377L52.6415 40.2167ZM51.4062 37.4952L47.6191 29.3331L44.3078 37.6881L51.4062 37.4952Z" fill="white"/>
</svg>
